HIERARCHY
ROOT Hips
{
    OFFSET 0.000000 0.000000 0.000000
    CHANNELS 6 Xposition Yposition Zposition Zrotation Xrotation Yrotation
    JOINT Spine
    {
        OFFSET -0.000000 7.779526 0.000000
        CHANNELS 3 Zrotation Xrotation Yrotation
        JOINT Spine1
        {
            OFFSET -0.000000 18.737511 0.000000
            CHANNELS 3 Zrotation Xrotation Yrotation
            JOINT Neck
            {
                OFFSET -0.000000 18.660559 1.696414
                CHANNELS 3 Zrotation Xrotation Yrotation
                JOINT Head
                {
                    OFFSET -0.000000 13.282117 -1.897445
                    CHANNELS 3 Zrotation Xrotation Yrotation
                    End Site
                    {
                        OFFSET -0.000000 23.718067 0.000000
                    }
                }
            }
            JOINT LeftShoulder
            {
                OFFSET 3.934798 15.673244 -0.380379
                CHANNELS 3 Zrotation Xrotation Yrotation
                JOINT LeftArm
                {
                    OFFSET 14.289327 0.000000 0.000000
                    CHANNELS 3 Zrotation Xrotation Yrotation
                    JOINT LeftForeArm
                    {
                        OFFSET 26.209503 0.000000 0.000000
                        CHANNELS 3 Zrotation Xrotation Yrotation
                        JOINT LeftHand
                        {
                            OFFSET 27.674961 0.000000 0.000000
                            CHANNELS 3 Zrotation Xrotation Yrotation
                            JOINT LeftHandThumb1
                            {
                                OFFSET 2.371807 -1.423084 4.743613
                                CHANNELS 3 Zrotation Xrotation Yrotation
                                JOINT LeftHandThumb2
                                {
                                    OFFSET 2.846168 0.000000 0.000000
                                    CHANNELS 3 Zrotation Xrotation Yrotation
                                    JOINT LeftHandThumb3
                                    {
                                        OFFSET 2.846168 0.000000 0.000000
                                        CHANNELS 3 Zrotation Xrotation Yrotation
                                        End Site
                                        {
                                            OFFSET 2.700224 0.000000 0.000000
                                        }
                                    }
                                }
                            }
                            JOINT LeftHandIndex1
                            {
                                OFFSET 7.934654 0.000000 3.320529
                                CHANNELS 3 Zrotation Xrotation Yrotation
                                JOINT LeftHandIndex2
                                {
                                    OFFSET 4.743613 0.000000 0.000000
                                    CHANNELS 3 Zrotation Xrotation Yrotation
                                    JOINT LeftHandIndex3
                                    {
                                        OFFSET 2.371807 0.000000 0.000000
                                        CHANNELS 3 Zrotation Xrotation Yrotation
                                        End Site
                                        {
                                            OFFSET 2.250187 0.000000 0.000000
                                        }
                                    }
                                }
                            }
                            JOINT LeftHandMiddle1
                            {
                                OFFSET 7.934654 0.000000 1.100518
                                CHANNELS 3 Zrotation Xrotation Yrotation
                                JOINT LeftHandMiddle2
                                {
                                    OFFSET 5.217975 0.000000 0.000000
                                    CHANNELS 3 Zrotation Xrotation Yrotation
                                    JOINT LeftHandMiddle3
                                    {
                                        OFFSET 2.846168 0.000000 0.000000
                                        CHANNELS 3 Zrotation Xrotation Yrotation
                                        End Site
                                        {
                                            OFFSET 2.700224 0.000000 0.000000
                                        }
                                    }
                                }
                            }
                            JOINT LeftHandRing1
                            {
                                OFFSET 5.640411 0.000000 -1.100518
                                CHANNELS 3 Zrotation Xrotation Yrotation
                                JOINT LeftHandRing2
                                {
                                    OFFSET 4.743613 0.000000 0.000000
                                    CHANNELS 3 Zrotation Xrotation Yrotation
                                    JOINT LeftHandRing3
                                    {
                                        OFFSET 2.371807 0.000000 0.000000
                                        CHANNELS 3 Zrotation Xrotation Yrotation
                                        End Site
                                        {
                                            OFFSET 2.250187 0.000000 0.000000
                                        }
                                    }
                                }
                            }
                            JOINT LeftHandPinky1
                            {
                                OFFSET 3.346169 0.000000 -3.320529
                                CHANNELS 3 Zrotation Xrotation Yrotation
                                JOINT LeftHandPinky2
                                {
                                    OFFSET 3.794891 0.000000 0.000000
                                    CHANNELS 3 Zrotation Xrotation Yrotation
                                    JOINT LeftHandPinky3
                                    {
                                        OFFSET 1.897445 0.000000 0.000000
                                        CHANNELS 3 Zrotation Xrotation Yrotation
                                        End Site
                                        {
                                            OFFSET 1.800149 0.000000 0.000000
                                        }
                                    }
                                }
                            }
                        }
                    }
                }
            }
            JOINT RightShoulder
            {
                OFFSET -3.642510 15.673244 -0.380379
                CHANNELS 3 Zrotation Xrotation Yrotation
                JOINT RightArm
                {
                    OFFSET -14.289327 0.000000 0.000000
                    CHANNELS 3 Zrotation Xrotation Yrotation
                    JOINT RightForeArm
                    {
                        OFFSET -26.209503 0.000000 0.000000
                        CHANNELS 3 Zrotation Xrotation Yrotation
                        JOINT RightHand
                        {
                            OFFSET -27.674961 0.000000 0.000000
                            CHANNELS 3 Zrotation Xrotation Yrotation
                            JOINT RightHandThumb1
                            {
                                OFFSET -2.371807 -1.423084 4.743613
                                CHANNELS 3 Zrotation Xrotation Yrotation
                                JOINT RightHandThumb2
                                {
                                    OFFSET -2.846168 0.000000 0.000000
                                    CHANNELS 3 Zrotation Xrotation Yrotation
                                    JOINT RightHandThumb3
                                    {
                                        OFFSET -2.846168 0.000000 0.000000
                                        CHANNELS 3 Zrotation Xrotation Yrotation
                                        End Site
                                        {
                                            OFFSET -2.700224 0.000000 0.000000
                                        }
                                    }
                                }
                            }
                            JOINT RightHandIndex1
                            {
                                OFFSET -7.934654 0.000000 3.320529
                                CHANNELS 3 Zrotation Xrotation Yrotation
                                JOINT RightHandIndex2
                                {
                                    OFFSET -4.743613 0.000000 0.000000
                                    CHANNELS 3 Zrotation Xrotation Yrotation
                                    JOINT RightHandIndex3
                                    {
                                        OFFSET -2.371807 0.000000 0.000000
                                        CHANNELS 3 Zrotation Xrotation Yrotation
                                        End Site
                                        {
                                            OFFSET -2.250187 0.000000 0.000000
                                        }
                                    }
                                }
                            }
                            JOINT RightHandMiddle1
                            {
                                OFFSET -7.934654 0.000000 1.100518
                                CHANNELS 3 Zrotation Xrotation Yrotation
                                JOINT RightHandMiddle2
                                {
                                    OFFSET -5.217975 0.000000 0.000000
                                    CHANNELS 3 Zrotation Xrotation Yrotation
                                    JOINT RightHandMiddle3
                                    {
                                        OFFSET -2.846168 0.000000 0.000000
                                        CHANNELS 3 Zrotation Xrotation Yrotation
                                        End Site
                                        {
                                            OFFSET -2.700224 0.000000 0.000000
                                        }
                                    }
                                }
                            }
                            JOINT RightHandRing1
                            {
                                OFFSET -5.640411 0.000000 -1.100518
                                CHANNELS 3 Zrotation Xrotation Yrotation
                                JOINT RightHandRing2
                                {
                                    OFFSET -4.743613 0.000000 0.000000
                                    CHANNELS 3 Zrotation Xrotation Yrotation
                                    JOINT RightHandRing3
                                    {
                                        OFFSET -2.371807 0.000000 0.000000
                                        CHANNELS 3 Zrotation Xrotation Yrotation
                                        End Site
                                        {
                                            OFFSET -2.250187 0.000000 0.000000
                                        }
                                    }
                                }
                            }
                            JOINT RightHandPinky1
                            {
                                OFFSET -3.346169 0.000000 -3.320529
                                CHANNELS 3 Zrotation Xrotation Yrotation
                                JOINT RightHandPinky2
                                {
                                    OFFSET -3.794891 0.000000 0.000000
                                    CHANNELS 3 Zrotation Xrotation Yrotation
                                    JOINT RightHandPinky3
                                    {
                                        OFFSET -1.897445 0.000000 0.000000
                                        CHANNELS 3 Zrotation Xrotation Yrotation
                                        End Site
                                        {
                                            OFFSET -1.800149 0.000000 0.000000
                                        }
                                    }
                                }
                            }
                        }
                    }
                }
            }
        }
    }
    JOINT LeftUpLeg
    {
        OFFSET 9.487226 0.000000 0.000000
        CHANNELS 3 Zrotation Xrotation Yrotation
        JOINT LeftLeg
        {
            OFFSET -0.000000 -48.946892 0.000000
            CHANNELS 3 Zrotation Xrotation Yrotation
            JOINT LeftFoot
            {
                OFFSET -0.000000 -35.104492 0.000000
                CHANNELS 3 Zrotation Xrotation Yrotation
                JOINT LeftToeBase
                {
                    OFFSET -0.000000 -6.166697 14.230840
                    CHANNELS 3 Zrotation Xrotation Yrotation
                    End Site
                    {
                        OFFSET -0.000000 0.000000 3.794891
                    }
                }
            }
        }
    }
    JOINT RightUpLeg
    {
        OFFSET -9.487226 0.000000 0.000000
        CHANNELS 3 Zrotation Xrotation Yrotation
        JOINT RightLeg
        {
            OFFSET -0.000000 -48.946892 0.000000
            CHANNELS 3 Zrotation Xrotation Yrotation
            JOINT RightFoot
            {
                OFFSET -0.000000 -35.104492 0.000000
                CHANNELS 3 Zrotation Xrotation Yrotation
                JOINT RightToeBase
                {
                    OFFSET -0.000000 -6.166697 14.230840
                    CHANNELS 3 Zrotation Xrotation Yrotation
                    End Site
                    {
                        OFFSET -0.000000 0.000000 3.794891
                    }
                }
            }
        }
    }
}
MOTION
Frames:    4
Frame Time:    0.008333
30.492710    79.831299    -69.839813    5.520887    29.000896    -21.728394    -4.393381    -10.462448    -3.491414    1.818429    12.404652    -3.286579    12.663630    3.451284    11.313611    -15.574883    -18.818630    5.576246    22.296368    -5.130495    -3.327054    0.044978    34.875309    -3.691300    47.078354    -44.226742    -54.062332    -3.909359    -6.158179    -22.349646    -10.992709    0.890580    -4.574821    0.000000    0.000000    0.000000    0.000000    0.000000    0.000000    -37.655514    7.990126    -10.211576    -76.741158    0.000000    0.000000    -38.370579    0.000000    0.000000    -28.855167    4.316098    -5.815907    -58.234894    0.000000    0.000000    -29.117441    0.000000    0.000000    -19.825848    1.363818    -0.923087    -39.728626    0.000000    0.000000    -19.864307    0.000000    0.000000    -10.298067    -0.825923    4.535976    -20.661554    0.000000    0.000000    -10.330777    0.000000    0.000000    -11.369720    5.034080    -4.216839    27.410187    -3.361800    -15.702825    -39.183907    -32.751656    72.128304    3.072339    -33.948265    8.429229    11.396325    -8.125836    -35.039612    0.000000    0.000000    -17.925880    0.000000    0.000000    -35.851765    15.929323    1.020211    3.569718    31.922228    0.000000    -0.000000    15.961114    0.000000    -0.000000    19.542576    0.480363    1.720343    39.097183    0.000000    -0.000000    19.548590    0.000000    -0.000000    23.136442    -0.174654    -0.091292    46.272133    0.000000    -0.000000    23.136066    0.000000    -0.000000    26.816133    -0.966559    -1.911324    53.664513    0.000000    -0.000000    26.832256    0.000000    -0.000000    31.198992    -48.781895    25.962563    -19.115957    67.308060    -10.613880    12.698750    -37.381054    40.403496    -0.064946    -5.416600    0.209454    26.791233    -46.105991    32.011200    23.887623    58.990219    -1.935527    -15.370398    -15.848320    -40.228172    0.869986    -23.502787    -4.772876
30.694252    80.333313    -69.358887    6.316039    28.631340    -23.728163    -4.941216    -11.236036    -3.240237    2.588646    13.148125    -3.052214    11.532816    2.886130    11.180663    -15.383953    -17.991543    5.679383    22.430401    -4.802341    -2.826276    1.552396    38.650265    -4.568186    46.009686    -44.009315    -55.524559    -6.220112    -6.004062    -23.209602    -10.480030    0.153983    -0.832376    0.000000    0.000000    0.000000    0.000000    0.000000    0.000000    -38.127907    7.296729    -9.191750    -77.430496    0.000000    0.000000    -38.715248    0.000000    0.000000    -28.755610    3.883722    -5.096014    -57.929821    0.000000    0.000000    -28.964911    0.000000    0.000000    -19.187090    1.188030    -0.509325    -38.429146    0.000000    0.000000    -19.214571    0.000000    0.000000    -9.138783    -0.744110    4.615444    -18.337538    0.000000    0.000000    -9.168769    0.000000    0.000000    -11.941257    4.635256    -4.280939    29.391533    1.008573    -15.286333    -41.822723    -33.867504    73.048126    4.334328    -33.609566    8.716928    11.928463    -8.442043    -34.797256    0.000000    0.000000    -17.840403    0.000000    0.000000    -35.680805    16.217093    1.087473    3.733425    32.505070    0.000000    -0.000000    16.252537    0.000000    -0.000000    19.833910    0.610503    2.025434    39.686436    0.000000    -0.000000    19.843218    0.000000    -0.000000    23.434731    0.026976    0.351012    46.867809    0.000000    -0.000000    23.433903    0.000000    -0.000000    27.125456    -0.682716    -1.332411    54.266796    0.000000    -0.000000    27.133396    0.000000    -0.000000    30.204821    -47.163517    25.428558    -19.100197    65.718994    -9.622193    12.166983    -37.221905    40.244781    -0.102826    -5.604040    0.333209    25.774315    -46.328293    31.062323    24.984753    59.462467    -2.152146    -12.802688    -15.031242    -37.950729    0.580505    -25.158649    -3.479211
30.853186    80.963387    -68.918625    7.016198    28.101612    -25.263462    -5.523023    -11.820400    -3.255385    3.281589    14.018197    -3.086700    10.597860    2.215529    11.112389    -15.400693    -17.017179    5.782351    22.604797    -4.695779    -2.150613    2.913277    42.449223    -6.087539    44.910862    -43.840359    -57.071529    -7.413833    -4.735338    -23.838417    -8.551387    -0.065843    0.437867    -0.000000    0.000000    0.221395    -0.000000    0.000000    0.442790    -37.362339    7.934618    -10.248307    -76.149971    0.000000    0.000000    -38.074986    0.000000    0.000000    -28.354380    4.353905    -6.051146    -57.258339    0.000000    0.000000    -28.629168    0.000000    0.000000    -19.135805    1.479434    -1.357638    -38.366711    0.000000    0.000000    -19.183350    0.000000    0.000000    -9.429298    -0.647489    3.892704    -18.902609    0.000000    0.000000    -9.451303    0.000000    0.000000    -12.463666    3.862912    -4.225078    31.648970    5.228812    -14.971375    -43.692341    -34.568886    74.615425    5.812217    -32.668468    9.436567    12.290044    -8.475833    -34.080963    0.000000    0.000000    -17.497578    0.000000    0.000000    -34.995155    17.377501    1.373120    4.378704    34.859997    0.000000    -0.000000    17.430000    0.000000    -0.000000    20.554108    0.771196    2.386010    41.136711    0.000000    -0.000000    20.568357    0.000000    -0.000000    23.707611    0.060178    0.429887    47.413437    0.000000    -0.000000    23.706718    0.000000    -0.000000    26.929642    -0.783329    -1.541628    53.880363    0.000000    -0.000000    26.940180    0.000000    -0.000000    28.544060    -45.595589    24.398022    -17.767874    63.603470    -7.780722    9.304422    -36.663696    36.990391    -0.134891    -6.119907    0.442999    24.309999    -46.580021    29.427374    25.612968    59.878025    -2.295078    -9.466906    -13.980148    -35.093121    0.285420    -26.930351    -1.902304
30.970064    81.679268    -68.446701    7.529679    27.416956    -26.436811    -5.889874    -11.701511    -3.163682    3.693443    13.956684    -3.011737    10.235478    1.303034    10.990977    -15.922196    -15.003743    5.738942    22.937071    -4.293443    -1.569343    4.711246    45.372238    -9.143394    43.269077    -43.237804    -58.984646    -8.488776    -4.020516    -24.502108    -6.504740    -0.271008    2.375492    -0.000000    0.000000    1.195446    -0.000000    0.000000    2.390892    -36.354820    7.340941    -9.848061    -73.976250    0.000000    0.000000    -36.988125    0.000000    0.000000    -27.390898    4.015026    -5.793159    -55.267426    0.000000    0.000000    -27.633718    0.000000    0.000000    -18.237474    1.365980    -1.279916    -36.558601    0.000000    0.000000    -18.279305    0.000000    0.000000    -8.622809    -0.569109    3.747536    -17.282856    0.000000    0.000000    -8.641429    0.000000    0.000000    -12.676142    3.484545    -4.770056    33.589146    8.845289    -14.230075    -44.545395    -34.155060    77.123390    6.827623    -31.245342    9.667220    13.320181    -8.713637    -32.613823    0.000000    0.000000    -16.816612    0.000000    0.000000    -33.633228    17.651291    1.439138    4.512855    35.416000    0.000000    -0.000000    17.708000    0.000000    -0.000000    20.334042    0.839107    2.540958    40.702003    0.000000    -0.000000    20.351000    0.000000    -0.000000    22.994310    0.147829    0.599489    45.987991    0.000000    -0.000000    22.993994    0.000000    -0.000000    25.709249    -0.657412    -1.365149    51.434162    0.000000    -0.000000    25.717081    0.000000    -0.000000    26.554829    -43.938931    23.070267    -15.739547    61.112125    -5.826898    6.346778    -36.191525    33.358688    -0.048578    -5.870808    0.158512    22.178514    -46.774124    27.723671    28.135162    59.837803    -3.484232    -6.162453    -12.384975    -33.271984    -0.062612    -28.411900    0.461418
